<svg width="63" height="63" viewBox="0 0 63 63" fill="none" xmlns="http://www.w3.org/2000/svg">
<circle cx="31.5" cy="31.5" r="27.5625" fill="#3290E8"/>
<path fill-rule="evenodd" clip-rule="evenodd" d="M43.3125 15.75H19.6875C17.541 15.7467 15.7538 17.5449 15.75 19.6875V43.3125C15.75 45.4869 17.5134 47.25 19.6875 47.25H43.3125C45.459 47.2533 47.2462 45.4551 47.25 43.3125V19.6875C47.25 17.5131 45.4875 15.75 43.3125 15.75ZM35.6991 21.525C35.6991 20.9458 36.1701 20.475 36.75 20.475C37.3299 20.475 37.8 20.9458 37.8 21.525V35.5539C37.8 36.1331 37.3291 36.6039 36.75 36.6039C36.1941 36.6043 35.7014 36.1116 35.7 35.5539L35.6991 21.525ZM30.4491 20.9939C30.4491 20.4138 30.9201 19.9439 31.5 19.9439C32.0799 19.9439 32.5509 20.4138 32.5509 20.9939V36.2189C32.5509 36.799 32.0799 37.2689 31.5 37.2689C30.9441 37.2693 30.4514 36.7766 30.45 36.2189L30.4491 20.9939ZM25.2 21.525C25.2 20.9458 25.6709 20.475 26.25 20.475C26.8299 20.475 27.3 20.9458 27.3 21.525V35.5539C27.3 36.1331 26.8299 36.6039 26.25 36.6039C25.6941 36.6043 25.2014 36.1116 25.2 35.5539V21.525ZM19.95 23.625C19.95 23.0449 20.4201 22.575 21 22.575C21.5799 22.575 22.05 23.0449 22.05 23.625V33.0689C22.05 33.649 21.5791 34.1189 21 34.1189C20.4276 34.1198 19.9509 33.6403 19.95 33.0689V23.625ZM42.6837 39.641C42.5224 39.781 38.632 43.0439 31.5 43.0439C24.368 43.0439 20.4802 39.7801 20.3163 39.6401C19.8825 39.2684 19.8311 38.594 20.2029 38.1605C20.5654 37.7386 21.257 37.6845 21.6802 38.045C21.7413 38.0966 25.2148 40.9439 31.4991 40.9439C37.8619 40.9439 41.2823 38.0756 41.3154 38.0476C41.7381 37.6844 42.4323 37.7374 42.7953 38.1605C43.1696 38.5932 43.1189 39.2695 42.6837 39.641ZM43.05 33.0698C43.05 33.649 42.5791 34.1198 42 34.1198C41.4276 34.1207 40.9509 33.6411 40.95 33.0698V23.625C40.95 23.0449 41.4201 22.575 41.9991 22.575C42.5791 22.575 43.05 23.0449 43.05 23.625V33.0698Z" fill="white"/>
</svg>
