<svg width="63" height="63" viewBox="0 0 63 63" fill="none" xmlns="http://www.w3.org/2000/svg">
<path fill-rule="evenodd" clip-rule="evenodd" d="M31.5 59.0625C46.7223 59.0625 59.0625 46.7223 59.0625 31.5C59.0625 16.2777 46.7223 3.9375 31.5 3.9375C16.2777 3.9375 3.9375 16.2777 3.9375 31.5C3.9375 46.7223 16.2777 59.0625 31.5 59.0625Z" fill="#1FB6FF"/>
<path fill-rule="evenodd" clip-rule="evenodd" d="M28.753 25.4386C30.7712 25.4605 27.218 35.9373 27.5995 40.4919C27.9842 45.087 33.0686 43.7639 32.7459 41.1187C32.1969 36.6216 35.1925 22.53 38.2306 22.53C40.3623 22.53 35.8697 32.2445 36.7537 38.4652C37.3385 42.5809 42.6471 41.1532 42.1077 38.7129C40.3231 30.6367 45.8521 22.875 45.2325 17.3757C44.9615 14.9696 43.5145 13.7929 42.067 13.7814C36.9992 13.7424 33.0845 24.1352 33.0845 24.1352C33.0845 24.1352 33.4922 18.2283 29.5535 18.0114C23.523 17.6791 17.5531 32.7714 17.7223 46.2473C17.7762 50.5465 23.1268 49.8142 22.8455 46.3866C22.3223 40.0121 25.8762 25.4078 28.753 25.4386Z" fill="white"/>
</svg>
