<svg width="63" height="63" viewBox="0 0 63 63" fill="none" xmlns="http://www.w3.org/2000/svg">
<path fill-rule="evenodd" clip-rule="evenodd" d="M11.2534 57.5225L4.48213 49.0871C2.85297 47.0576 1.96875 44.5619 1.96875 41.9932V11.4483C1.96875 7.60064 5.04706 4.40797 9.01828 4.13684L40.4226 1.99273C42.7041 1.83697 44.9718 2.4434 46.8459 3.71051L57.8798 11.1705C59.8548 12.5059 61.0312 14.6888 61.0312 17.0184V51.745C61.0312 55.5104 58.0044 58.628 54.1163 58.8673L19.2609 61.0129C16.1582 61.2039 13.1591 59.8966 11.2534 57.5225Z" fill="white"/>
<path d="M22.1448 26.733V26.3331C22.1448 25.3195 22.9567 24.4787 24.003 24.4089L31.6247 23.9L42.1649 39.4213V25.7987L39.4519 25.4371V25.2471C39.4519 24.2215 40.2824 23.3753 41.3421 23.321L48.277 22.9657V23.9637C48.277 24.4322 47.9286 24.833 47.4511 24.9137L45.7823 25.196V47.2572L43.6878 47.9775C41.9381 48.5792 39.9901 47.9351 38.9885 46.4236L28.7558 30.9825V45.7202L31.9054 46.3229L31.8615 46.6151C31.7241 47.5302 30.934 48.2223 29.9782 48.2648L22.1448 48.6134C22.0413 47.6294 22.7788 46.749 23.7962 46.6421L24.8266 46.5339V26.8837L22.1448 26.733Z" fill="black"/>
<path fill-rule="evenodd" clip-rule="evenodd" d="M40.7038 5.84081L9.29946 7.98491C7.41835 8.11334 5.96021 9.62566 5.96021 11.4482V41.9931C5.96021 43.7056 6.54969 45.3694 7.63579 46.7224L14.407 55.1578C15.5018 56.5217 17.2247 57.2726 19.0071 57.1629L53.8624 55.0174C55.6489 54.9074 57.0396 53.475 57.0396 51.745V17.0183C57.0396 15.948 56.4991 14.945 55.5916 14.3315L44.5578 6.87147C43.4333 6.1112 42.0727 5.74735 40.7038 5.84081ZM10.8567 11.9247C10.42 11.6013 10.6278 10.9276 11.1765 10.8882L40.9151 8.7552C41.8626 8.68724 42.8041 8.94816 43.5704 9.49106L49.5372 13.7185C49.7637 13.879 49.6574 14.2254 49.377 14.2407L17.884 15.9535C16.9309 16.0053 15.9902 15.7253 15.2324 15.1642L10.8567 11.9247ZM16.4068 21.3229C16.4068 20.2998 17.2334 19.4547 18.2903 19.3971L51.5874 17.5838C52.6175 17.5277 53.4846 18.3198 53.4846 19.317V49.3866C53.4846 50.4078 52.661 51.2521 51.6061 51.3121L18.5199 53.1947C17.3735 53.2599 16.4068 52.379 16.4068 51.2691V21.3229Z" fill="black"/>
</svg>
