<svg width="63" height="63" viewBox="0 0 63 63" fill="none" xmlns="http://www.w3.org/2000/svg">
<path d="M3.9375 31.4957C3.9375 46.7157 16.2794 59.0586 31.5011 59.0586C46.7227 59.0586 59.0625 46.7157 59.0625 31.4957C59.0625 16.2717 46.7227 3.93359 31.5011 3.93359C16.2794 3.93359 3.9375 16.2717 3.9375 31.4957Z" fill="url(#paint0_linear_1_326)"/>
<path fill-rule="evenodd" clip-rule="evenodd" d="M38.6777 49.465C39.4003 48.7691 43.6414 44.6851 46.0807 41.9949C48.4056 39.4241 49.5748 36.1164 49.3648 32.6863C49.1491 29.1538 47.5005 25.8824 44.7192 23.48C40.1262 19.5087 32.7024 19.5894 28.1709 23.6563C26.5179 25.1375 24.6508 27.1694 24.5711 27.2565C23.3795 28.5523 23.4676 30.5698 24.761 31.7607C26.0565 32.9496 28.0681 32.8653 29.2628 31.5709C29.2789 31.5518 31.0011 29.6776 32.4219 28.4053C34.8077 26.2636 38.6232 26.6347 40.555 28.305C42.0267 29.5752 42.8961 31.2684 43.0064 33.0725C43.1102 34.7749 42.5245 36.4246 41.3607 37.7098C39.0618 40.2504 34.8297 44.3229 34.2449 44.8856C34.2036 44.9253 34.1806 44.9475 34.1775 44.9506C32.9066 46.1681 32.8603 48.1825 34.0771 49.4572C34.7026 50.1109 35.538 50.442 36.3801 50.442C37.1699 50.442 37.9624 50.148 38.578 49.561C38.5914 49.548 38.6253 49.5153 38.6777 49.465ZM18.6693 39.2914C20.9298 41.2463 23.8742 42.2219 26.8228 42.2219C29.8679 42.2219 32.9167 41.1827 35.2173 39.1159C36.7331 37.7545 38.4328 35.9319 38.7629 35.5779C38.7925 35.5462 38.8111 35.5263 38.8175 35.5195C40.0085 34.2237 39.9221 32.2048 38.6276 31.0151C37.3346 29.8225 35.3182 29.9056 34.1281 31.2027C34.1276 31.2034 34.1246 31.2066 34.1194 31.2123C33.9835 31.359 32.3345 33.1412 30.9676 34.3704C28.5806 36.508 24.7665 36.1422 22.8323 34.4683C21.3623 33.1971 20.4929 31.5035 20.3816 29.698C20.2778 27.9973 20.8644 26.3514 22.0282 25.0611C24.4908 22.3435 29.1636 17.8689 29.2115 17.8234C30.4831 16.6072 30.5263 14.59 29.3122 13.3167C28.0951 12.0451 26.0809 11.9964 24.81 13.2143L24.789 13.2343C24.3962 13.6113 19.863 17.9599 17.3103 20.7803C14.9817 23.3497 13.8173 26.6572 14.0232 30.086C14.2406 33.6203 15.8893 36.8895 18.6693 39.2914Z" fill="white"/>
<defs>
<linearGradient id="paint0_linear_1_326" x1="3.9375" y1="59.0586" x2="3.9375" y2="3.93359" gradientUnits="userSpaceOnUse">
<stop stop-color="#2255FF"/>
<stop offset="1" stop-color="#00AAFF"/>
</linearGradient>
</defs>
</svg>
