<svg width="63" height="63" viewBox="0 0 63 63" fill="none" xmlns="http://www.w3.org/2000/svg">
<circle cx="31.5" cy="31.5" r="27.5625" fill="#5FCF80"/>
<path d="M47.0953 20.3139C45.5257 19.3748 43.7548 18.0574 42.1173 19.7411C40.0826 22.6305 36.3472 26.5208 38.2533 30.3008C39.0228 31.7514 40.2945 32.8339 41.3167 34.0951C41.9164 34.7118 42.2329 35.5149 42.1173 36.386C41.9781 37.5673 41.0382 38.498 39.8894 38.6411C38.3577 38.8201 37.0349 37.5673 37.0349 36.0281C36.8957 35.2048 37.1046 33.3434 35.7121 33.1286C34.807 32.9855 33.6583 34.4531 33.0665 36.386C32.5929 37.9822 32.8576 39.3403 32.8576 40.9321C32.8576 42.6374 31.623 44.1705 29.7943 43.9747C28.5759 43.8315 27.5316 42.8292 27.3575 41.5764C27.2047 40.5814 27.6333 39.5703 28.2278 38.7843C28.8196 37.8894 29.7246 36.5292 30.1772 35.2764C30.6645 33.9519 31.3801 32.896 30.4557 32.198C29.5312 31.4999 25.6085 37.3399 23.4587 36.9588C22.484 36.7798 21.7181 35.9565 21.5441 34.99C21.2656 33.5224 22.2055 32.2338 23.4935 31.9832C25.0053 31.7088 29.4858 30.0235 28.9936 28.1889C28.5463 26.625 24.7022 29.5222 23.4587 29.4059C22.2751 29.3701 21.3352 28.332 21.3004 27.115C21.3004 25.7536 22.3876 24.7883 23.7024 24.7883C25.2429 24.7883 26.7661 25.4383 28.3322 25.0747C32.3465 24.1834 33.8496 20.6034 35.8514 17.4144C36.7913 15.911 36.3387 13.8707 34.807 12.9758C32.9276 11.929 30.9842 11.3071 28.9588 12.5105L15.8699 20.3139C14.5819 21.0656 13.7812 22.4974 13.7812 24.0366V38.9991C13.7812 40.5383 14.5819 41.9701 15.8699 42.7218L28.9936 50.4894C30.5253 51.4201 32.4399 51.4201 34.0064 50.4894L47.1301 42.7218C48.4181 41.9701 49.2188 40.5383 49.2188 38.9991V24.0366C49.1839 22.4974 48.3833 21.0656 47.0953 20.3139Z" fill="white"/>
</svg>
