<svg width="63" height="63" viewBox="0 0 63 63" fill="none" xmlns="http://www.w3.org/2000/svg">
<path d="M37.3179 37.3312C33.578 38.7386 29.3871 38.7411 25.6471 37.3321C24.238 33.5962 24.2376 29.4062 25.6449 25.6697C29.384 24.26 33.579 24.2597 37.3181 25.6695C38.7267 29.4048 38.726 33.5959 37.3179 37.3312ZM58.6793 26.9064H42.5801L53.9633 15.5297C52.1768 13.0218 49.9713 10.8188 47.4619 9.03338L36.0778 20.41V4.32127C33.0396 3.81049 29.9236 3.81127 26.8854 4.32127V20.41L15.5014 9.03338C12.9925 10.8176 10.7863 13.0237 8.99972 15.5297L20.3846 26.9064H4.28563C3.88824 30.0337 3.75913 32.9728 4.28563 36.0937H20.3848L8.99994 47.4704C10.7909 49.982 12.9881 52.1778 15.5014 53.9676L26.8854 42.5901V58.6797C29.924 59.1885 33.039 59.1888 36.0776 58.6797V42.5901L47.4627 53.9676C49.9732 52.1804 52.1749 49.9792 53.9633 47.4704L42.5784 36.0937H58.6793C59.1902 33.06 59.1902 29.94 58.6793 26.9064Z" fill="#FF4A00"/>
</svg>
