<svg width="113" height="36" viewBox="0 0 113 36" fill="none" xmlns="http://www.w3.org/2000/svg">
<path d="M23.3745 11.6239C23.1428 11.3988 22.8178 11.2965 22.4997 11.3488C22.1811 11.4009 21.9058 11.601 21.758 11.8881C21.2496 12.8758 20.6038 13.7834 19.844 14.5858C19.9198 14.0062 19.9579 13.4231 19.9579 12.8385C19.9579 11.7167 19.8076 10.5623 19.5109 9.40691C18.5355 5.61203 15.9778 2.40277 12.4938 0.602045C12.1905 0.445321 11.829 0.450823 11.5306 0.616719C11.2322 0.782681 11.0367 1.08696 11.01 1.42731C10.7383 4.87591 8.96202 8.01338 6.13371 10.0373C6.09628 10.0642 6.05912 10.0915 6.02196 10.1187C5.94498 10.175 5.87242 10.2283 5.80464 10.273C5.79401 10.2801 5.7835 10.2873 5.77318 10.2947C3.99439 11.5682 2.52669 13.2659 1.5285 15.2047C0.514258 17.1767 0 19.293 0 21.4944C0 22.6158 0.150336 23.7702 0.446865 24.9258C2.01173 31.0166 7.49293 35.2704 13.7762 35.2704C21.372 35.2704 27.5515 29.0905 27.5515 21.4944C27.5515 17.7485 26.0681 14.2431 23.3745 11.6239Z" fill="#CBCFFA"/>
<path d="M13.2487 25.7843C15.5772 25.7843 17.4648 23.8968 17.4648 21.5683C17.4648 19.2399 15.5772 17.3523 13.2487 17.3523C10.9203 17.3523 9.03271 19.2399 9.03271 21.5683C9.03271 23.8968 10.9203 25.7843 13.2487 25.7843Z" fill="#F8F8F8"/>
<path d="M107.906 15.6494V13.0551H107.102V12.481H109.357V13.0551H108.565V15.6494H107.906ZM109.683 15.6494V12.481H110.321L111.507 14.0546H111.21L112.362 12.481H113V15.6494H112.341V13.2082L112.604 13.2678L111.384 14.8414H111.299L110.121 13.2678L110.342 13.2082V15.6494H109.683Z" fill="#131126"/>
<path d="M44.1228 29.314C45.1846 29.314 46.1234 29.12 46.9402 28.7322C47.7567 28.3239 48.3794 27.7114 48.808 26.8949V28.9465H53.0953V12.2271H48.5018V21.9954C48.5018 22.9549 48.2161 23.7306 47.6446 24.3226C47.0727 24.8942 46.3379 25.1801 45.4399 25.1801C44.5414 25.1801 43.8067 24.8942 43.2348 24.3226C42.6633 23.7306 42.3775 22.9549 42.3775 21.9954V12.2271H37.7844V22.3628C37.7844 24.4451 38.3251 26.1293 39.4072 27.4154C40.5098 28.6811 42.0814 29.314 44.1228 29.314Z" fill="#131126"/>
<path d="M56.4523 10.7265H61.0454V6.1333H56.4523V10.7265ZM56.4523 28.9465H61.0454V12.227H56.4523V28.9465Z" fill="#131126"/>
<path d="M66.428 28.9465H71.0211V16.2079H74.6037V12.227H71.0211V11.9821C71.0211 10.4918 71.8888 9.74668 73.624 9.74668C73.9098 9.74668 74.2467 9.77733 74.6345 9.83856V5.91899C74.1651 5.81689 73.624 5.76587 73.0113 5.76587C70.9291 5.76587 69.3063 6.30686 68.1425 7.38881C66.9995 8.47079 66.428 10.0019 66.428 11.9821V12.227H63.6106V16.2079H66.428V28.9465Z" fill="#131126"/>
<path d="M76.9663 28.9467H81.5598V19.9439C81.5598 18.6986 81.9068 17.7391 82.6007 17.0654C83.2951 16.3713 84.2035 16.0243 85.3261 16.0243H86.7652V12.0435H85.7855C84.7646 12.0435 83.8562 12.2374 83.0602 12.6253C82.2846 12.9927 81.6823 13.697 81.2537 14.7382V12.2272H76.9663V28.9467Z" fill="#131126"/>
<path d="M91.3815 35.7445C94.4434 35.7445 96.6585 33.9991 98.0264 30.5082L105.192 12.2271H100.262L96.3116 22.9753L92.3612 12.2271H87.4311L94.0148 28.9465L93.7086 29.6508C93.4637 30.202 93.1472 30.692 92.7594 31.1206C92.3716 31.5493 91.7285 31.7637 90.83 31.7637C90.0952 31.7637 89.4013 31.6616 88.7478 31.4575V35.224C89.0951 35.4077 89.4929 35.5404 89.9423 35.622C90.4118 35.7037 90.8916 35.7445 91.3815 35.7445Z" fill="#131126"/>
</svg>
